<svg width="18" height="17" viewBox="0 0 18 17" fill="none" xmlns="http://www.w3.org/2000/svg">
<path d="M1.79999 0.244537C1.2477 0.244537 0.799988 0.692253 0.799988 1.24454C0.799988 1.79682 1.2477 2.24454 1.79999 2.24454V0.244537ZM3.51939 1.24454L4.48462 0.983122C4.36656 0.54722 3.971 0.244537 3.51939 0.244537V1.24454ZM6.31342 11.561L5.34819 11.8224C5.47846 12.3034 5.94298 12.615 6.43745 12.5532L6.31342 11.561ZM14.9104 10.4863L15.0345 11.4786C15.4592 11.4255 15.803 11.1081 15.8897 10.6889L14.9104 10.4863ZM16.2 4.25349L17.1792 4.4561C17.2402 4.16158 17.1653 3.85528 16.9754 3.62207C16.7855 3.38885 16.5007 3.25349 16.2 3.25349V4.25349ZM4.33432 4.25349L3.36909 4.51491L4.33432 4.25349ZM1.79999 2.24454H3.51939V0.244537H1.79999V2.24454ZM6.43745 12.5532L15.0345 11.4786L14.7864 9.49405L6.18938 10.5687L6.43745 12.5532ZM15.8897 10.6889L17.1792 4.4561L15.2207 4.05089L13.9312 10.2837L15.8897 10.6889ZM2.55416 1.50595L3.36909 4.51491L5.29954 3.99208L4.48462 0.983122L2.55416 1.50595ZM3.36909 4.51491L5.34819 11.8224L7.27865 11.2995L5.29954 3.99208L3.36909 4.51491ZM16.2 3.25349H4.33432V5.25349H16.2V3.25349ZM7.99999 14.375C7.99999 14.444 7.94402 14.5 7.87499 14.5V16.5C9.04859 16.5 9.99999 15.5486 9.99999 14.375H7.99999ZM7.87499 14.5C7.80595 14.5 7.74999 14.444 7.74999 14.375H5.74999C5.74999 15.5486 6.70138 16.5 7.87499 16.5V14.5ZM7.74999 14.375C7.74999 14.306 7.80595 14.25 7.87499 14.25V12.25C6.70138 12.25 5.74999 13.2014 5.74999 14.375H7.74999ZM7.87499 14.25C7.94402 14.25 7.99999 14.306 7.99999 14.375H9.99999C9.99999 13.2014 9.04859 12.25 7.87499 12.25V14.25ZM14 14.375C14 14.444 13.944 14.5 13.875 14.5V16.5C15.0486 16.5 16 15.5486 16 14.375H14ZM13.875 14.5C13.806 14.5 13.75 14.444 13.75 14.375H11.75C11.75 15.5486 12.7014 16.5 13.875 16.5V14.5ZM13.75 14.375C13.75 14.306 13.806 14.25 13.875 14.25V12.25C12.7014 12.25 11.75 13.2014 11.75 14.375H13.75ZM13.875 14.25C13.944 14.25 14 14.306 14 14.375H16C16 13.2014 15.0486 12.25 13.875 12.25V14.25Z" fill="white"/>
</svg>
