<svg width="18" height="17" viewBox="0 0 18 17" fill="none" xmlns="http://www.w3.org/2000/svg">
<path d="M1.79999 0.244629C1.2477 0.244629 0.799988 0.692344 0.799988 1.24463C0.799988 1.79691 1.2477 2.24463 1.79999 2.24463V0.244629ZM3.51939 1.24463L4.48462 0.983214C4.36656 0.547311 3.971 0.244629 3.51939 0.244629V1.24463ZM6.31342 11.561L5.34819 11.8225C5.47846 12.3035 5.94298 12.6151 6.43745 12.5533L6.31342 11.561ZM14.9104 10.4864L15.0345 11.4787C15.4592 11.4256 15.803 11.1081 15.8897 10.689L14.9104 10.4864ZM16.2 4.25358L17.1792 4.45619C17.2402 4.16168 17.1653 3.85538 16.9754 3.62216C16.7855 3.38895 16.5007 3.25358 16.2 3.25358V4.25358ZM4.33432 4.25358L3.36909 4.515L4.33432 4.25358ZM1.79999 2.24463H3.51939V0.244629H1.79999V2.24463ZM6.43745 12.5533L15.0345 11.4787L14.7864 9.49414L6.18938 10.5688L6.43745 12.5533ZM15.8897 10.689L17.1792 4.45619L15.2207 4.05098L13.9312 10.2838L15.8897 10.689ZM2.55416 1.50604L3.36909 4.515L5.29954 3.99217L4.48462 0.983214L2.55416 1.50604ZM3.36909 4.515L5.34819 11.8225L7.27865 11.2996L5.29954 3.99217L3.36909 4.515ZM16.2 3.25358H4.33432V5.25358H16.2V3.25358ZM7.99999 14.3751C7.99999 14.4441 7.94402 14.5001 7.87499 14.5001V16.5001C9.04859 16.5001 9.99999 15.5487 9.99999 14.3751H7.99999ZM7.87499 14.5001C7.80595 14.5001 7.74999 14.4441 7.74999 14.3751H5.74999C5.74999 15.5487 6.70138 16.5001 7.87499 16.5001V14.5001ZM7.74999 14.3751C7.74999 14.306 7.80595 14.2501 7.87499 14.2501V12.2501C6.70138 12.2501 5.74999 13.2015 5.74999 14.3751H7.74999ZM7.87499 14.2501C7.94402 14.2501 7.99999 14.306 7.99999 14.3751H9.99999C9.99999 13.2015 9.04859 12.2501 7.87499 12.2501V14.2501ZM14 14.3751C14 14.4441 13.944 14.5001 13.875 14.5001V16.5001C15.0486 16.5001 16 15.5487 16 14.3751H14ZM13.875 14.5001C13.806 14.5001 13.75 14.4441 13.75 14.3751H11.75C11.75 15.5487 12.7014 16.5001 13.875 16.5001V14.5001ZM13.75 14.3751C13.75 14.306 13.806 14.2501 13.875 14.2501V12.2501C12.7014 12.2501 11.75 13.2015 11.75 14.3751H13.75ZM13.875 14.2501C13.944 14.2501 14 14.306 14 14.3751H16C16 13.2015 15.0486 12.2501 13.875 12.2501V14.2501Z" fill="white"/>
</svg>
