<svg width="19" height="19" viewBox="0 0 19 19" fill="none" xmlns="http://www.w3.org/2000/svg">
<path d="M0.353135 1.45939C0.280498 1.38675 0.222879 1.30051 0.183568 1.20561C0.144257 1.1107 0.124023 1.00899 0.124023 0.90626C0.124023 0.803535 0.144257 0.701817 0.183568 0.606911C0.222879 0.512006 0.280498 0.425773 0.353135 0.353135C0.425773 0.280498 0.512006 0.222879 0.606911 0.183568C0.701817 0.144257 0.803535 0.124023 0.90626 0.124023C1.00899 0.124023 1.1107 0.144257 1.20561 0.183568C1.30051 0.222879 1.38675 0.280498 1.45939 0.353135L9.50001 8.39532L17.5406 0.353135C17.6133 0.280498 17.6995 0.222879 17.7944 0.183568C17.8893 0.144257 17.991 0.124023 18.0938 0.124023C18.1965 0.124023 18.2982 0.144257 18.3931 0.183568C18.488 0.222879 18.5742 0.280498 18.6469 0.353135C18.7195 0.425773 18.7771 0.512006 18.8165 0.606911C18.8558 0.701817 18.876 0.803535 18.876 0.90626C18.876 1.00899 18.8558 1.1107 18.8165 1.20561C18.7771 1.30051 18.7195 1.38675 18.6469 1.45939L10.6047 9.50001L18.6469 17.5406C18.7195 17.6133 18.7771 17.6995 18.8165 17.7944C18.8558 17.8893 18.876 17.991 18.876 18.0938C18.876 18.1965 18.8558 18.2982 18.8165 18.3931C18.7771 18.488 18.7195 18.5742 18.6469 18.6469C18.5742 18.7195 18.488 18.7771 18.3931 18.8165C18.2982 18.8558 18.1965 18.876 18.0938 18.876C17.991 18.876 17.8893 18.8558 17.7944 18.8165C17.6995 18.7771 17.6133 18.7195 17.5406 18.6469L9.50001 10.6047L1.45939 18.6469C1.38675 18.7195 1.30051 18.7771 1.20561 18.8165C1.1107 18.8558 1.00899 18.876 0.90626 18.876C0.803535 18.876 0.701817 18.8558 0.606911 18.8165C0.512006 18.7771 0.425773 18.7195 0.353135 18.6469C0.280498 18.5742 0.222879 18.488 0.183568 18.3931C0.144257 18.2982 0.124023 18.1965 0.124023 18.0938C0.124023 17.991 0.144257 17.8893 0.183568 17.7944C0.222879 17.6995 0.280498 17.6133 0.353135 17.5406L8.39532 9.50001L0.353135 1.45939Z" fill="#212529"/>
</svg>
