<svg width="70" height="69" viewBox="0 0 70 69" fill="none" xmlns="http://www.w3.org/2000/svg">
<path d="M37.7218 67.8131C34.813 65.5606 33.7549 62.1581 34.7804 58.6428C35.5194 56.1097 36.9969 54.0103 38.6378 51.9942C39.0792 51.4519 39.5172 50.9057 39.7862 50.2528C40.2985 49.0096 40.0055 47.9341 38.944 47.099C37.7522 46.1614 36.3 45.9593 34.8743 45.6752C32.0785 45.1181 29.3346 44.3887 26.8473 42.9659C23.2558 40.9114 21.1419 37.8351 20.7035 33.7583C20.0947 28.098 22.2755 23.6022 26.9291 20.3207C29.6042 18.4344 32.7299 17.5197 35.904 16.7867C38.7801 16.1225 41.6997 15.6466 44.5424 14.8383C46.2461 14.3539 47.8491 13.6616 49.345 12.7126C51.7906 11.1612 52.4451 8.88467 52.1041 6.20446C51.9244 4.79231 51.4764 3.45403 50.8051 2.19108C50.7606 2.10741 50.7312 2.01992 50.8366 1.90112C51.1839 1.96659 51.3172 2.29673 51.4958 2.53325C53.628 5.35752 54.4819 8.48117 53.6336 11.9545C53.1733 13.8389 51.9819 15.2528 50.4398 16.4012C48.3558 17.9532 45.9913 18.9773 43.5948 19.9462C40.2934 21.2809 36.9067 22.4331 33.8942 24.3869C31.8199 25.7323 30.2805 27.4762 29.5728 29.8591C28.2059 34.4614 29.9771 37.9852 34.5739 39.7308C36.5709 40.4892 38.7157 40.7531 40.7444 41.4155C42.5985 42.0208 44.4604 42.6119 45.9019 44.0169C47.8448 45.9106 47.9928 48.6209 46.306 50.7508C45.2366 52.1012 43.8458 53.0996 42.566 54.2221C40.9092 55.6752 39.3827 57.2458 38.2256 59.1284C36.5918 61.7864 36.3804 64.5165 37.8267 67.3236C37.9942 67.6487 37.9869 67.6524 37.7218 67.8131Z" fill="#FFA800"/>
<path d="M42.5314 24.4044C40.5417 25.2609 38.6094 26.1111 36.907 27.3814C34.4445 29.219 33.2124 32.3792 33.9314 35.0451C34.3963 36.7693 35.6197 37.8886 37.0732 38.8208C37.2824 38.955 37.566 38.9914 37.6905 39.239C37.6486 39.3743 37.5549 39.3531 37.4681 39.3248C31.4223 37.3579 31.3867 31.1037 34.1928 27.8613C35.9072 25.8803 38.229 24.7864 40.5831 23.7699C42.8429 22.7941 45.1799 21.9975 47.4128 20.9579C49.3807 20.0417 51.2486 18.9926 52.615 17.2443C53.2194 16.471 53.5011 15.5751 53.7841 14.6514C53.9787 15.0484 53.9991 15.4111 53.9095 15.9464C53.5879 17.8686 52.5041 19.2992 50.9455 20.4207C48.6395 22.08 45.9636 23.0006 43.3718 24.0881C43.1127 24.1968 42.8454 24.2866 42.5314 24.4044Z" fill="#FFA800"/>
<path d="M18.9411 39.0398C16.8416 34.4788 17.8587 29.7743 19.8152 27.2014C19.937 27.4672 19.7662 27.6482 19.6904 27.8426C17.9406 32.3296 18.2578 36.6052 21.1199 40.5741C22.6776 42.7341 24.9522 43.94 27.3919 44.886C29.8074 45.8226 32.3348 46.34 34.868 46.8359C35.6755 46.9939 36.4759 47.1688 37.2243 47.5239C38.65 48.2001 39.0652 49.4229 38.3172 50.8003C38.1107 51.1806 37.9063 51.5751 37.5059 51.8243C37.304 51.5842 37.4827 51.3969 37.5311 51.2197C37.9115 49.8272 37.4862 48.9293 36.1171 48.3936C35.0202 47.9643 33.8432 47.8471 32.695 47.617C28.9886 46.8742 25.3814 45.8864 22.3681 43.4635C20.8822 42.2688 19.7812 40.7865 18.9411 39.0398Z" fill="#FFA800"/>
</svg>
