<svg width="12" height="12" viewBox="0 0 12 12" fill="none" xmlns="http://www.w3.org/2000/svg">
<path fill-rule="evenodd" clip-rule="evenodd" d="M1.41363 0.38336C1.54486 0.252327 1.70244 0.150679 1.87593 0.0851526C2.04942 0.0196264 2.23485 -0.00828183 2.41994 0.00327733C2.60503 0.0148365 2.78555 0.0655991 2.94953 0.152201C3.11352 0.238803 3.25723 0.359267 3.37113 0.50561L4.71738 2.23511C4.96413 2.55236 5.05113 2.96561 4.95363 3.35561L4.54338 4.99811C4.52217 5.08318 4.52332 5.17229 4.54671 5.25679C4.5701 5.34129 4.61494 5.41831 4.67688 5.48036L6.51963 7.32311C6.58176 7.38518 6.6589 7.43009 6.74355 7.45349C6.82819 7.47688 6.91745 7.47796 7.00263 7.45661L8.64438 7.04636C8.83684 6.99824 9.03773 6.9945 9.23184 7.03543C9.42596 7.07636 9.60824 7.16088 9.76488 7.28261L11.4944 8.62811C12.1161 9.11186 12.1731 10.0306 11.6166 10.5864L10.8411 11.3619C10.2861 11.9169 9.45663 12.1606 8.68338 11.8884C6.70427 11.192 4.90734 10.059 3.42588 8.57336C1.94035 7.09212 0.80734 5.29545 0.110884 3.31661C-0.160616 2.54411 0.083134 1.71386 0.638134 1.15886L1.41363 0.38336Z" fill="white"/>
</svg>
